HIERARCHY
ROOT SpineBase
{
  OFFSET 0.000000 0.000000 0.000000
  CHANNELS 6 Xposition Yposition Zposition Zrotation Xrotation Yrotation
  JOINT SpineMid
  {
    OFFSET -0.000000 33.053388 0.000000
    CHANNELS 3 Zrotation Xrotation Yrotation
    JOINT SpineShoulder
    {
      OFFSET 0.134116 24.418728 -0.865769
      CHANNELS 3 Zrotation Xrotation Yrotation
      JOINT Neck
      {
        OFFSET 0.133701 8.038780 -0.642072
        CHANNELS 3 Zrotation Xrotation Yrotation
        JOINT Head
        {
          OFFSET 3.752306 11.810901 5.924693
          CHANNELS 3 Zrotation Xrotation Yrotation
          End Site
          {
            OFFSET 0 0 0
          }
        }
      }
      JOINT ShoulderLeft
      {
        OFFSET -5.127315 -4.345022 -15.222552
        CHANNELS 3 Zrotation Xrotation Yrotation
        JOINT ElbowLeft
        {
          OFFSET -1.879490 -24.370879 -6.651915
          CHANNELS 3 Zrotation Xrotation Yrotation
          JOINT WristLeft
          {
            OFFSET 5.841431 -20.296808 0.556844
            CHANNELS 3 Zrotation Xrotation Yrotation
            JOINT HandLeft
            {
              OFFSET 0.826326 -7.331343 2.278373
              CHANNELS 3 Zrotation Xrotation Yrotation
              JOINT HandTipLeft
              {
                OFFSET 3.525186 -7.526304 -0.310558
                CHANNELS 3 Zrotation Xrotation Yrotation
                End Site
                {
                  OFFSET 0 0 0
                }
              }
              JOINT ThumbLeft
              {
                OFFSET 3.047827 0.856315 -0.608670
                CHANNELS 3 Zrotation Xrotation Yrotation
                End Site
                {
                  OFFSET 0 0 0
                }
              }
            }
          }
        }
      }
      JOINT ShoulderRight
      {
        OFFSET 6.070449 -4.012912 15.055337
        CHANNELS 3 Zrotation Xrotation Yrotation
        JOINT ElbowRight
        {
          OFFSET 0.939373 -27.825362 -6.856952
          CHANNELS 3 Zrotation Xrotation Yrotation
          JOINT WristRight
          {
            OFFSET -6.446512 -25.193609 -11.624952
            CHANNELS 3 Zrotation Xrotation Yrotation
            JOINT HandRight
            {
              OFFSET 3.293772 -7.094475 -7.063366
              CHANNELS 3 Zrotation Xrotation Yrotation
              JOINT HandTipRight
              {
                OFFSET -3.460006 -5.914344 -3.868199
                CHANNELS 3 Zrotation Xrotation Yrotation
                End Site
                {
                  OFFSET 0 0 0
                }
              }
              JOINT ThumbRight
              {
                OFFSET -0.253789 1.129784 -6.543508
                CHANNELS 3 Zrotation Xrotation Yrotation
                End Site
                {
                  OFFSET 0 0 0
                }
              }
            }
          }
        }
      }
    }
  }
  JOINT HipLeft
  {
    OFFSET -1.574327 1.586835 -8.786533
    CHANNELS 3 Zrotation Xrotation Yrotation
    JOINT KneeLeft
    {
      OFFSET -7.797718 -35.687917 -3.302945
      CHANNELS 3 Zrotation Xrotation Yrotation
      JOINT AnkleLeft
      {
        OFFSET -9.048818 -35.244100 5.296520
        CHANNELS 3 Zrotation Xrotation Yrotation
        JOINT FootLeft
        {
          OFFSET 3.405035 -8.843222 -3.792365
          CHANNELS 3 Zrotation Xrotation Yrotation
          End Site
          {
            OFFSET 0 0 0
          }
        }
      }
    }
  }
  JOINT HipRight
  {
    OFFSET 3.252035 -0.770701 0.972408
    CHANNELS 3 Zrotation Xrotation Yrotation
    JOINT KneeRight
    {
      OFFSET -2.007563 -33.004009 7.852512
      CHANNELS 3 Zrotation Xrotation Yrotation
      JOINT AnkleRight
      {
        OFFSET -10.367814 -36.844061 5.403520
        CHANNELS 3 Zrotation Xrotation Yrotation
        JOINT FootRight
        {
          OFFSET 11.437333 -4.346779 -7.475796
          CHANNELS 3 Zrotation Xrotation Yrotation
          End Site
          {
            OFFSET 0 0 0
          }
        }
      }
    }
  }
}
MOTION
Frames: 14
Frame Time: 0.033333
-76.937393 82.393576 365.277539 -0.410135 -0.278672 -57.298352 -0.012915 0.495682 57.297410 -0.000000 0.000000 0.000000 0.364400 2.565525 -0.995948 0.000000 0.000000 0.000000 -1.792409 -0.235382 0.503412 0.219790 1.183323 -0.260294 -0.859822 -2.116292 -1.170708 2.248833 -0.711752 -0.028344 0.000000 0.000000 0.000000 0.000000 0.000000 0.000000 -0.942504 -3.974850 0.065897 3.007484 2.612419 -0.859789 -13.696512 1.289974 13.081273 22.014527 -26.332499 -5.405011 0.000000 0.000000 0.000000 0.000000 0.000000 0.000000 -0.312422 -0.308801 57.415260 4.434420 1.278395 0.093947 25.196200 15.388797 -8.769243 0.000000 0.000000 0.000000 -0.012915 0.495682 57.297410 1.818430 0.140459 0.226008 -15.160789 -6.652470 7.991695 0.000000 0.000000 0.000000
-60.704257 80.735327 366.413150 -1.247345 -1.841328 -42.510368 -0.035639 0.484247 42.464273 0.286396 0.131473 -0.007934 6.051840 -1.276588 -1.909014 0.000000 0.000000 0.000000 -6.758463 -4.940361 2.324982 -2.951397 13.082481 0.537697 7.451827 -6.950366 -2.413120 -2.654942 4.658361 3.720746 0.000000 0.000000 0.000000 0.000000 0.000000 0.000000 3.680167 2.722231 -0.778201 -2.812554 7.143390 -1.605763 -15.466227 -4.026074 18.383125 18.417155 -22.371736 -14.192932 0.000000 0.000000 0.000000 0.000000 0.000000 0.000000 -1.112447 -1.399130 43.241633 9.354216 2.622852 -0.260009 15.034813 17.039923 -5.515758 0.000000 0.000000 0.000000 -2.742536 6.982743 42.725076 4.605001 -5.574592 1.494220 -25.785659 -10.532237 4.590090 0.000000 0.000000 0.000000
-41.074195 78.927169 367.809218 -1.457945 -4.113147 -16.689793 0.114956 0.342302 16.610139 0.432435 0.019246 0.007093 12.386408 -5.664924 -2.878930 0.000000 0.000000 0.000000 -16.693309 -15.297751 4.684062 -9.243707 32.120381 6.345527 19.894448 -8.486530 -2.941179 -9.541946 7.057740 9.555965 0.000000 0.000000 0.000000 0.000000 0.000000 0.000000 12.499816 14.834008 -4.303099 -15.772397 13.098794 -2.701781 -15.000227 -13.800458 22.743457 15.947811 -8.446392 -25.970105 0.000000 0.000000 0.000000 0.000000 0.000000 0.000000 -3.882048 -1.625921 18.235535 13.332544 3.717463 -1.000938 -1.998441 18.169257 2.222625 0.000000 0.000000 0.000000 -0.342632 16.096038 16.710752 8.947660 -11.855366 4.059700 -36.890846 -13.172177 4.167622 0.000000 0.000000 0.000000
-20.596742 77.021837 369.312748 -1.479607 -6.929558 7.623393 0.255047 0.177825 -7.731687 0.589233 -0.065188 0.032709 17.863882 -10.749718 -3.068478 0.000000 0.000000 0.000000 -34.743104 -34.109675 4.674964 -16.484807 60.597845 28.085608 25.634058 -9.158472 -5.631258 -13.141896 1.958593 15.034514 0.000000 0.000000 0.000000 0.000000 0.000000 0.000000 31.764543 32.294457 -16.549473 -35.568703 18.223929 -8.450234 -16.881619 -24.379185 28.941729 20.252144 1.830383 -40.285033 0.000000 0.000000 0.000000 0.000000 0.000000 0.000000 -7.981327 0.187986 -4.680085 18.257603 5.309367 -2.424155 -29.686616 11.825104 14.457165 0.000000 0.000000 0.000000 10.078004 24.385545 -9.975739 13.782414 -18.477715 8.078598 -57.560265 -22.471191 16.779879 0.000000 0.000000 0.000000
-1.165943 74.933279 370.680708 -1.204817 -10.181358 22.761419 0.298931 0.033386 -22.868499 0.754919 -0.095109 0.065636 23.898236 -14.370957 -4.518546 0.000000 0.000000 0.000000 -54.958784 -52.583691 -2.681654 -69.440005 71.025347 98.801593 16.605134 6.585815 -12.998760 -5.650499 -18.304428 18.406065 0.000000 0.000000 0.000000 0.000000 0.000000 0.000000 69.240508 44.480288 -47.140844 -55.347949 26.481124 -23.634963 -17.813149 -35.858192 32.412075 26.341638 4.411703 -51.597711 0.000000 0.000000 0.000000 0.000000 0.000000 0.000000 -12.021383 3.400303 -17.665321 22.398051 7.179005 -4.413690 -47.812199 5.706403 22.766846 0.000000 0.000000 0.000000 22.537938 29.884629 -29.455091 19.543093 -24.559363 13.660394 -67.863539 -27.805049 30.593577 0.000000 0.000000 0.000000
13.490906 73.355590 371.962141 -0.951389 -12.780813 29.366529 0.251898 -0.055827 -29.454540 0.855302 -0.102698 0.085452 27.465638 -18.074861 -4.467197 0.000000 0.000000 0.000000 -76.701166 -63.706772 -16.734526 -89.633029 63.133275 132.395829 7.762799 28.716707 -7.401022 -1.674145 -37.949195 13.203545 0.000000 0.000000 0.000000 0.000000 0.000000 0.000000 104.594836 38.426086 -76.527537 -66.967895 37.200900 -42.857092 -16.031826 -40.335847 36.607925 28.909808 0.661770 -58.870746 0.000000 0.000000 0.000000 0.000000 0.000000 0.000000 -15.218900 5.153534 -22.133482 25.432888 9.636619 -6.622965 -57.622280 1.045872 27.093578 0.000000 0.000000 0.000000 33.156878 33.231188 -40.493096 25.038306 -28.450486 19.422896 -68.191258 -25.957244 50.879650 0.000000 0.000000 0.000000
21.628188 72.374945 372.847360 -0.176000 -14.255725 30.872605 0.284876 -0.099421 -30.848729 1.000410 0.019773 0.117770 28.636130 -20.249936 -4.246828 0.000000 0.000000 0.000000 -95.587965 -70.077560 -34.505783 -95.505756 55.005380 146.279117 1.202864 37.572188 -1.593417 -10.697227 -45.968317 -3.004908 0.000000 0.000000 0.000000 0.000000 0.000000 0.000000 117.923387 28.109155 -85.828693 -72.103259 50.743161 -57.620335 -13.007698 -39.960189 42.931847 28.292570 -5.646702 -64.347281 0.000000 0.000000 0.000000 0.000000 0.000000 0.000000 -18.516589 5.055163 -21.883623 26.833783 12.292658 -8.601314 -60.526292 -0.114600 29.765114 0.000000 0.000000 0.000000 38.428742 36.063775 -45.202625 29.795049 -29.554161 23.932376 -67.453152 -19.660535 60.299532 0.000000 0.000000 0.000000
20.593237 72.391456 373.499966 0.216823 -14.561193 28.568348 0.326466 -0.113771 -28.484507 0.901932 0.011444 0.142257 28.568044 -19.725758 -4.800073 0.000000 0.000000 0.000000 -109.497965 -73.954726 -52.521024 -96.656738 45.283825 150.480229 4.512256 35.780902 -1.628447 -16.935229 -45.338484 -11.558693 0.000000 0.000000 0.000000 0.000000 0.000000 0.000000 123.405264 20.823879 -87.598415 -83.493195 65.805012 -63.851969 -0.920426 -36.487798 54.183398 25.256463 -6.380878 -69.164384 0.000000 0.000000 0.000000 0.000000 0.000000 0.000000 -19.414360 3.092510 -19.373481 24.921555 14.437881 -9.279584 -56.240205 3.713553 31.616200 0.000000 0.000000 0.000000 38.829942 37.772924 -43.720172 31.177495 -28.578791 24.938645 -70.517770 -20.378762 62.714559 0.000000 0.000000 0.000000
8.189825 74.086890 373.478277 1.076243 -12.470830 22.002295 0.260667 -0.046097 -21.798377 0.707570 0.016065 0.174718 25.756643 -17.309668 -5.016597 0.000000 0.000000 0.000000 -121.328854 -76.912935 -72.874744 -97.639597 34.110099 148.656195 10.094085 22.916419 -16.911712 4.173809 -36.512313 19.485230 0.000000 0.000000 0.000000 0.000000 0.000000 0.000000 123.625842 18.106302 -84.415572 -161.041300 76.877225 -7.535174 19.885109 -21.246018 73.532271 15.482048 1.060341 -77.093900 0.000000 0.000000 0.000000 0.000000 0.000000 0.000000 -17.902639 -1.670090 -14.417873 18.509813 16.196869 -8.309829 -48.321926 5.681016 29.607315 0.000000 0.000000 0.000000 30.175187 36.801252 -33.198992 29.229287 -24.325654 21.158812 -67.148778 -14.157285 59.747913 0.000000 0.000000 0.000000
3.900799 75.099144 373.998864 1.662919 -10.773806 21.449323 0.267213 -0.014284 -21.191624 0.586186 0.080619 0.191058 23.825350 -16.667679 -4.575184 0.000000 0.000000 0.000000 -128.889610 -78.957463 -87.279929 -97.606714 23.259682 146.821084 23.509885 15.055707 -12.174617 -9.377899 -33.915711 8.935336 0.000000 0.000000 0.000000 0.000000 0.000000 0.000000 122.023739 10.474921 -74.563109 125.363921 58.620873 44.885998 30.502050 -15.220915 84.312157 -4.966103 32.723554 -83.841828 0.000000 0.000000 0.000000 0.000000 0.000000 0.000000 -16.318133 -4.981398 -14.792895 15.863734 18.517334 -8.291027 -47.087243 5.780367 28.539073 0.000000 0.000000 0.000000 31.150580 33.914021 -31.485941 27.147184 -23.385359 19.745688 -70.764574 -16.486329 57.213565 0.000000 0.000000 0.000000
-0.254549 76.709233 374.458698 1.838959 -8.903462 21.469655 0.401797 0.081495 -21.232570 0.562627 0.116784 0.189524 23.813982 -15.310818 -5.723066 0.000000 0.000000 0.000000 -136.406627 -80.583285 -100.997252 -100.335211 17.060380 146.060391 26.875679 11.085981 -12.392160 -11.966711 -32.721148 6.131390 0.000000 0.000000 0.000000 0.000000 0.000000 0.000000 121.282906 10.121872 -71.213541 116.449819 40.414481 35.586048 40.273280 -1.910556 92.890309 -26.465692 44.662030 -84.325589 0.000000 0.000000 0.000000 0.000000 0.000000 0.000000 -13.412483 -8.138187 -15.883293 12.403847 19.899838 -7.684243 -45.280612 6.626785 27.268118 0.000000 0.000000 0.000000 32.085042 29.778005 -29.635663 24.234609 -21.923737 17.316690 -75.005577 -20.414648 52.119908 0.000000 0.000000 0.000000
-4.108609 78.804217 374.796812 2.101709 -6.684637 22.760577 0.540913 0.094943 -22.545070 0.452855 0.015950 0.194072 23.547060 -13.958914 -6.707463 0.000000 0.000000 0.000000 -145.848684 -81.956574 -116.075812 -104.498374 14.222980 144.887914 23.115907 6.280397 -19.550286 1.658427 -22.962259 28.199664 0.000000 0.000000 0.000000 0.000000 0.000000 0.000000 120.457151 13.907542 -71.711225 114.060762 29.354841 22.890102 48.750000 12.701962 96.320636 -53.696438 51.831154 -76.531048 0.000000 0.000000 0.000000 0.000000 0.000000 0.000000 -10.131157 -11.107966 -18.142316 7.830893 20.446260 -6.497504 -42.288869 6.995800 24.982491 0.000000 0.000000 0.000000 32.659026 24.643218 -28.511437 21.044918 -20.135147 14.415792 -82.812881 -27.248313 39.049987 0.000000 0.000000 0.000000
-7.474759 81.054749 375.070315 3.298550 -4.658463 23.836271 0.313292 0.219553 -23.572654 0.380493 0.023574 0.217529 21.594376 -11.907155 -7.496433 0.000000 0.000000 0.000000 -154.718791 -82.064775 -127.247259 -108.487159 16.118389 144.157510 16.680059 6.948099 -23.562530 1.752840 -16.991607 38.706718 0.000000 0.000000 0.000000 0.000000 0.000000 0.000000 119.303928 18.029604 -73.063198 112.089705 23.938178 14.103332 53.698048 20.405493 95.941068 -67.345098 53.028862 -69.018541 0.000000 0.000000 0.000000 0.000000 0.000000 0.000000 -8.522998 -13.386529 -19.673648 3.820056 20.416540 -5.343784 -41.043250 8.072049 24.696177 0.000000 0.000000 0.000000 31.484836 20.779582 -27.567264 18.946640 -18.164185 12.017109 -87.415249 -29.620299 28.744185 0.000000 0.000000 0.000000
-10.212109 82.648067 375.436051 4.294253 -3.108118 27.871375 0.080438 0.310368 -27.599858 0.189229 -0.005140 0.228975 19.535195 -9.776354 -8.029388 0.000000 0.000000 0.000000 -155.280411 -81.593289 -127.570013 -117.572497 25.334848 151.035478 2.365147 7.857855 -33.138667 2.932014 -16.635160 39.787293 0.000000 0.000000 0.000000 0.000000 0.000000 0.000000 119.062745 22.955983 -76.459869 113.603441 24.547133 8.709334 57.349517 30.753103 97.523475 -83.941851 56.314324 -61.356136 0.000000 0.000000 0.000000 0.000000 0.000000 0.000000 -8.160011 -13.883588 -24.141259 1.563313 19.308911 -4.374648 -41.928015 8.960663 25.227571 0.000000 0.000000 0.000000 31.727055 16.180820 -29.761325 16.775634 -16.868388 10.022051 -91.765686 -31.412987 19.916880 0.000000 0.000000 0.000000
